<?xml version="1.0" encoding="utf-8"?>
<!-- Generator: Adobe Illustrator 18.0.0, SVG Export Plug-In . SVG Version: 6.00 Build 0)  -->
<!DOCTYPE svg PUBLIC "-//W3C//DTD SVG 1.1//EN" "http://www.w3.org/Graphics/SVG/1.1/DTD/svg11.dtd">
<svg version="1.1" id="Layer_1" xmlns="http://www.w3.org/2000/svg" xmlns:xlink="http://www.w3.org/1999/xlink" x="0px" y="0px"
	 viewBox="338.7 3221.3 1065.3 172.8" enable-background="new 338.7 3221.3 1065.3 172.8" xml:space="preserve">
<g id="Layer_28">
	<g id="desktop_-_basic">
		<g>
			<path id="slash" fill="#cc3333" d="M1031.6,3221.3h19.9l-59.6,172.8H972L1031.6,3221.3z"/>
		</g>
		<path fill="#424242" d="M383.6,3336.2l-34.6-75.2v111.5h-10.4v-133.1h11.2l39.7,85.5l39.7-85.5h11.2v132.2h-10.4v-111.5
			l-34.6,75.2h-12.1V3336.2z"/>
		<path fill="#424242" d="M489.9,3371.6h-10.4v-132.2h10.4V3371.6z"/>
		<path fill="#424242" d="M565.1,3371.6h-10.4v-122.7h-36.3v-10.4h83.8v10.4h-36.3v122.7H565.1z"/>
		<path fill="#424242" d="M724.9,3279.2H705c-1.7-15.6-14.7-22.5-26.8-22.5c-13,0-27.6,7.8-27.6,26.8v42.3
			c0,18.1,13.8,26.8,27.6,26.8c13.8,0,27.6-7.8,27.6-26.8v-8.6h-27.6v-19.9h47.5v27.6c0,28.5-19,46.7-47.5,46.7
			s-47.5-16.4-47.5-44.9v-42.3c0-28.5,19-46.7,47.5-46.7C705,3236.8,723.2,3253.2,724.9,3279.2z"/>
		<path fill="#424242" d="M752.5,3283.5c0-28.5,19-46.7,47.5-46.7s47.5,18.1,47.5,46.7v42.3c0,28.5-19,46.7-47.5,46.7
			s-47.5-18.1-47.5-46.7V3283.5z M826.8,3283.5c0-18.1-13.8-26.8-27.6-26.8c-13.8,0-27.6,7.8-27.6,26.8v42.3
			c0,18.1,13.8,26.8,27.6,26.8c13.8,0,27.6-7.8,27.6-26.8V3283.5z"/>
		<path fill="#424242" d="M931.4,3371.6h-20.7L864,3239.4h20.7l36.3,102.8l36.3-102.8H978L931.4,3371.6z"/>
		<path fill="#424242" d="M1080,3239.4h19.9v112.3h57.9v19.9H1080V3239.4z"/>
		<path fill="#424242" d="M1258,3339.6h-49.2l-11.2,32h-20.7l46.7-132.2h20.7l46.7,132.2h-20.7L1258,3339.6z M1251.9,3320.6
			l-18.1-52.7l-18.1,52.7H1251.9z"/>
		<path fill="#424242" d="M1309,3239.4h51c25.9,0,40.6,14.7,40.6,38c0,11.2-4.3,20.7-13,26.8c11.2,6.9,16.4,18.1,16.4,29.4
			c0,23.3-13.8,38-40.6,38H1309L1309,3239.4L1309,3239.4z M1329.7,3259.3v35.4h31.1c12.1,0,19.9-6,19.9-18.1
			c0-11.2-7.8-18.1-19.9-18.1h-31.1V3259.3z M1329.7,3314.6v36.3h33.7c12.1,0,19.9-6,19.9-18.1s-7.8-18.1-19.9-18.1H1329.7z"/>
	</g>
</g>
</svg>
